<?xml version="1.0" standalone="no"?>
<!DOCTYPE svg PUBLIC "-//W3C//DTD SVG 20010904//EN"
 "http://www.w3.org/TR/2001/REC-SVG-20010904/DTD/svg10.dtd">
<svg version="1.0" xmlns="http://www.w3.org/2000/svg"
 width="400.000000pt" height="400.000000pt" viewBox="0 0 400.000000 400.000000"
 preserveAspectRatio="xMidYMid meet">
<metadata>
Created by potrace 1.14, written by Peter Selinger 2001-2017
</metadata>
<g transform="translate(0.000000,400.000000) scale(0.100000,-0.100000)"
fill="#000000" stroke="none">
<path d="M1905 3709 c-63 -5 -125 -19 -208 -47 -113 -39 -320 -140 -382 -187
-60 -45 -177 -163 -172 -173 4 -5 -8 -22 -25 -38 -18 -16 -26 -20 -18 -9 8 11
21 24 28 28 7 5 10 12 7 17 -9 15 -84 -70 -128 -145 -87 -148 -141 -276 -187
-450 -17 -61 -23 -120 -27 -246 -5 -148 -3 -175 17 -254 25 -100 75 -203 126
-263 19 -22 34 -43 34 -46 0 -2 21 -25 48 -50 45 -44 72 -57 72 -36 0 6 -3 10
-7 10 -5 0 -24 19 -43 42 -41 50 -23 41 41 -20 34 -32 45 -49 41 -64 -3 -13
-7 -16 -12 -8 -13 20 -23 -9 -22 -60 0 -32 -3 -47 -12 -47 -7 0 -35 -6 -61
-13 -56 -16 -105 -63 -135 -129 -12 -25 -25 -53 -29 -61 -5 -10 -25 -16 -57
-17 -68 -3 -132 -20 -180 -48 -54 -31 -129 -116 -144 -160 -6 -20 -15 -33 -18
-31 -4 2 -7 -55 -6 -127 0 -147 2 -153 74 -231 52 -56 96 -85 165 -110 28 -10
54 -23 60 -27 5 -5 41 -9 80 -9 157 0 290 82 356 218 18 36 21 55 16 115 -4
55 -2 76 10 89 8 9 16 37 17 62 2 46 30 91 49 79 5 -3 7 -1 4 4 -4 6 1 32 9
57 13 38 21 48 45 53 16 3 27 8 25 12 -3 4 3 7 12 8 99 7 147 40 197 135 l20
38 49 -40 c27 -22 70 -53 97 -68 27 -15 52 -36 55 -46 6 -18 7 -18 19 -3 30
42 35 -4 6 -60 -23 -45 -38 -133 -23 -133 6 0 14 10 18 22 6 19 8 19 16 5 17
-31 -60 -235 -154 -412 -24 -43 -27 -94 -14 -217 l8 -76 -33 -19 c-23 -12 -64
-20 -128 -23 -84 -4 -93 -7 -80 -20 8 -9 25 -30 37 -49 23 -31 23 -32 3 -22
-16 9 -19 9 -15 -2 2 -7 47 -41 99 -76 86 -56 94 -65 89 -87 -3 -13 -1 -31 6
-39 6 -8 8 -20 4 -26 -4 -7 -3 -9 4 -5 6 3 35 -18 65 -49 29 -30 61 -55 71
-55 10 0 14 -5 10 -12 -4 -7 -3 -8 5 -4 6 4 35 -7 65 -23 l54 -31 471 0 472 1
22 22 c12 12 27 21 33 19 6 -1 17 5 24 13 7 8 19 15 28 15 8 0 -5 -15 -29 -32
-39 -29 -41 -33 -22 -36 12 -2 33 4 47 14 24 15 26 15 26 -1 0 -15 14 -16 153
-13 l152 3 94 50 c119 63 149 99 225 266 15 31 26 63 26 72 0 10 5 17 10 17 6
0 8 11 4 26 -4 15 -3 25 2 21 18 -11 -1 168 -20 199 -79 122 -232 132 -326 22
l-26 -29 -1 42 c-1 24 2 48 8 55 7 9 3 17 -13 28 -12 9 -18 16 -13 16 12 0 31
41 40 88 4 19 4 69 0 113 l-7 79 -68 0 c-62 0 -68 2 -74 23 -12 49 -65 114
-108 131 -24 10 -62 27 -86 39 -54 28 -188 146 -195 172 l-6 20 16 -20 c15
-19 15 -19 7 10 -4 17 -8 53 -9 80 0 54 -8 75 -30 75 -8 0 -30 10 -50 21 -34
20 -35 22 -20 43 27 37 85 166 97 215 l11 48 27 -14 c24 -12 34 -11 71 1 l42
15 63 -65 c53 -54 69 -64 97 -64 42 0 91 16 138 46 l37 23 26 -29 c30 -35 81
-62 155 -84 43 -13 62 -14 95 -5 58 16 95 37 123 70 14 16 29 26 34 23 5 -3 8
-2 7 3 -2 5 14 30 35 55 45 54 77 147 77 218 0 59 -37 166 -74 215 -15 19 -51
48 -79 63 -45 23 -64 27 -137 27 -110 0 -171 -26 -240 -102 -28 -30 -50 -61
-50 -69 0 -8 -4 -14 -10 -14 -5 0 -7 -6 -4 -14 4 -10 -11 -13 -71 -12 -72 1
-76 2 -82 26 -11 46 -42 98 -75 123 -30 24 -31 27 -16 44 9 10 27 52 39 93 33
104 33 273 0 375 -62 191 -117 300 -219 427 -145 182 -315 299 -548 377 -131
44 -155 46 -339 30z m170 -74 c25 -4 26 -4 10 5 -15 7 -10 8 20 4 142 -21 233
-52 219 -75 -3 -5 1 -6 9 -3 8 3 18 1 22 -5 4 -7 -6 -11 -26 -11 -18 0 -29 -3
-25 -7 4 -4 22 -6 40 -5 28 2 40 -4 70 -39 72 -79 113 -155 135 -248 25 -105
26 -163 6 -250 -39 -166 -142 -277 -320 -347 -41 -15 -75 -19 -185 -19 -120 0
-139 2 -177 22 -133 72 -231 171 -295 299 -43 87 -43 88 -43 193 1 145 35 289
84 345 9 10 27 23 41 29 20 8 22 11 8 14 -27 6 -22 16 22 52 71 57 92 62 230
56 69 -2 139 -7 155 -10z m550 -260 c55 -55 126 -136 156 -180 74 -105 82
-122 67 -131 -7 -4 -8 -3 -4 5 4 6 0 14 -9 17 -9 4 -14 13 -10 22 5 13 3 13
-12 1 -9 -8 -14 -9 -10 -3 4 7 -5 19 -21 30 -34 22 -76 69 -99 112 -10 17 -24
32 -33 32 -13 0 -13 1 0 10 11 7 11 10 2 10 -17 0 -53 38 -76 80 -10 19 -24
40 -30 45 -6 6 -29 31 -51 55 l-40 43 35 -24 c19 -13 80 -69 135 -124z m-1220
85 c-3 -5 -12 -10 -18 -10 -7 0 -6 4 3 10 19 12 23 12 15 0z m1176 -120 c26
-61 38 -130 35 -208 -4 -111 -16 -118 -16 -9 0 65 -6 107 -26 169 -14 46 -30
87 -35 93 -5 5 -9 14 -9 20 1 14 38 -34 51 -65z m394 -522 c4 -21 11 -38 16
-38 5 0 9 -42 9 -92 0 -95 -27 -213 -48 -213 -6 0 -14 -4 -19 -9 -5 -5 -3 -6
5 -2 19 11 14 -9 -6 -28 -18 -16 -19 -10 -21 151 -1 93 1 213 5 268 l7 100 23
-50 c12 -27 25 -67 29 -87z m-1945 -93 c60 -124 80 -218 80 -379 0 -104 -5
-152 -19 -204 -24 -85 -61 -167 -70 -156 -46 56 -95 131 -118 179 -28 59 -28
62 -28 260 0 175 3 211 23 290 12 50 28 103 34 119 l12 29 23 -29 c13 -16 41
-65 63 -109z m1502 -118 c27 -1 45 -10 63 -29 14 -16 22 -28 17 -28 -5 0 -15
7 -22 15 -7 9 -19 14 -26 11 -6 -2 -33 2 -60 10 -26 8 -72 14 -103 15 -41 0
-51 3 -36 9 11 5 45 7 75 4 30 -3 72 -6 92 -7z m-82 -59 c65 -12 180 -62 180
-78 0 -6 5 -8 12 -4 8 5 9 2 5 -10 -4 -9 -3 -14 2 -11 5 3 22 -6 37 -20 15
-14 24 -25 20 -25 -3 0 1 -14 10 -31 17 -34 20 -44 36 -134 8 -42 8 -102 1
-200 -8 -116 -14 -152 -38 -210 -45 -111 -77 -159 -110 -165 -23 -4 -31 -13
-42 -47 -11 -33 -20 -42 -41 -45 -18 -2 -28 -10 -32 -27 -6 -27 -91 -91 -120
-91 -10 0 -20 -5 -22 -11 -6 -19 -119 -39 -220 -39 -91 0 -103 2 -172 35 -83
39 -101 42 -113 20 -7 -13 -25 -5 -98 45 -50 33 -101 70 -115 82 -36 33 -100
113 -100 125 0 6 -6 16 -14 22 -20 17 -49 75 -71 140 -17 52 -17 54 4 91 11
20 17 41 13 45 -4 5 -2 5 4 2 14 -8 32 31 40 86 4 23 12 47 18 52 6 6 23 30
38 55 36 63 143 164 167 157 10 -2 25 0 32 5 11 8 10 8 -4 4 -11 -3 -16 -2
-12 4 4 6 19 9 33 8 31 -2 55 9 47 22 -3 5 4 7 15 5 13 -3 18 0 14 7 -5 8 -1
9 12 4 10 -4 15 -4 12 0 -4 4 13 23 39 42 33 26 74 43 152 64 168 46 246 51
381 26z m300 -13 c0 -1 -12 -2 -26 -2 -17 0 -22 2 -13 7 10 7 39 3 39 -5z m46
-35 c0 -12 -4 -16 -9 -11 -5 5 -6 14 -3 20 10 15 12 14 12 -9z m100 -67 c5
-36 4 -42 -15 -48 -11 -3 -21 -11 -21 -16 0 -6 -5 -7 -12 -3 -6 4 -9 3 -5 -2
7 -12 -12 -38 -39 -52 -18 -10 -22 -7 -34 26 -20 52 -23 92 -7 92 22 0 28 -12
15 -29 -10 -13 -10 -14 2 -4 17 16 21 55 6 66 -6 4 1 5 16 3 15 -2 40 -1 55 4
21 6 23 9 8 9 -16 1 -17 3 -5 11 18 11 27 -2 36 -57z m669 -49 c-11 -2 -46 -6
-78 -9 -31 -4 -55 -10 -53 -13 2 -4 -9 -7 -25 -8 -36 -1 -33 2 17 20 21 8 66
14 99 14 33 0 51 -2 40 -4z m-597 -46 c23 -26 46 -78 33 -78 -5 0 -15 17 -24
38 l-15 37 4 -37 c4 -36 3 -37 -29 -36 -17 0 -39 4 -48 9 -12 6 -24 0 -43 -21
-14 -17 -26 -36 -26 -44 0 -8 -4 -18 -10 -21 -6 -3 -10 4 -10 17 0 13 -3 32
-6 44 -4 15 1 23 21 32 15 7 31 9 37 6 7 -5 8 -2 3 6 -6 10 -4 12 9 7 10 -4
15 -3 11 3 -7 12 29 32 41 22 5 -4 6 -3 2 2 -8 9 8 36 21 36 4 0 17 -10 29
-22z m402 2 c0 -5 -5 -10 -11 -10 -5 0 -7 5 -4 10 3 6 8 10 11 10 2 0 4 -4 4
-10z m-40 -29 c-5 -11 -15 -23 -21 -27 -6 -3 -3 5 6 20 20 30 30 35 15 7z
m374 -7 c3 -8 2 -12 -4 -9 -6 3 -10 10 -10 16 0 14 7 11 14 -7z m-1014 -718
c41 -30 45 -37 43 -71 -2 -21 9 -79 23 -129 14 -50 28 -101 31 -113 6 -28 52
-75 67 -70 15 5 76 -14 169 -52 68 -29 77 -36 78 -59 0 -15 3 -21 6 -14 17 44
46 -49 39 -128 -3 -30 -5 -61 -6 -68 0 -18 -90 -54 -122 -50 -15 3 -25 1 -22
-4 11 -17 -42 -7 -78 15 -44 26 -78 66 -175 203 -40 55 -95 119 -122 142 -38
32 -52 52 -57 80 -9 48 -32 94 -44 87 -6 -4 -10 1 -10 9 0 9 -6 15 -12 13 -7
-1 -14 8 -16 19 -3 18 1 21 25 17 24 -4 25 -2 11 7 -22 14 -24 42 -3 34 8 -4
12 -10 9 -15 -3 -5 2 -6 10 -3 9 3 16 10 16 14 0 5 12 10 28 12 39 4 35 32 -5
36 -23 2 -30 7 -26 18 4 10 23 14 70 14 56 0 64 2 61 17 -3 14 -11 17 -41 15
-35 -3 -37 -2 -37 27 0 26 4 31 23 30 12 0 42 -15 67 -33z m-257 -193 c4 -32
1 -42 -21 -60 -54 -46 -178 -61 -244 -30 -35 16 -65 44 -57 51 2 3 42 10 89
16 88 12 174 33 200 50 24 15 28 12 33 -27z m-1686 11 c-3 -3 -12 -4 -19 -1
-8 3 -5 6 6 6 11 1 17 -2 13 -5z m1139 -26 c-4 -13 -8 -30 -9 -38 -1 -8 -6
-18 -11 -21 -5 -4 -6 -14 -3 -24 6 -14 10 -12 32 11 14 15 25 35 25 45 0 26
14 31 32 10 10 -12 13 -24 7 -32 -11 -18 -11 -59 0 -59 5 0 18 16 30 36 34 57
57 21 26 -40 -8 -15 -15 -30 -15 -32 0 -8 30 -4 30 4 1 4 12 21 26 37 13 17
22 22 18 13 -4 -13 -1 -18 10 -18 20 0 22 -46 2 -53 -19 -7 -31 -66 -17 -80
16 -16 14 -113 -2 -129 -10 -9 -15 -59 -20 -168 -4 -113 -10 -163 -21 -185 -9
-16 -16 -35 -16 -41 0 -7 -11 -19 -25 -28 -23 -15 -24 -15 -18 1 5 15 4 16 -8
7 -14 -12 -39 -18 -119 -34 -49 -9 -129 6 -131 25 -8 130 -8 133 23 162 l30
28 -16 -32 c-23 -46 -3 -50 32 -6 31 41 93 180 112 252 6 24 18 51 27 59 19
20 12 47 -43 160 -46 95 -48 105 -24 167 12 32 45 35 36 3z m-1211 2 c-3 -5
-12 -10 -18 -10 -7 0 -6 4 3 10 19 12 23 12 15 0z m2198 -83 c39 -35 57 -45
150 -87 26 -12 47 -26 47 -32 0 -7 -4 -7 -12 -1 -7 6 -31 13 -53 17 -36 6
-109 27 -160 46 -13 5 -27 27 -38 61 -10 30 -21 61 -24 69 -5 14 5 6 90 -73z
m-2255 44 c-23 -19 -74 -116 -70 -133 1 -5 -2 -8 -8 -8 -5 0 -10 5 -10 12 0 6
-3 8 -6 5 -4 -4 -2 -12 4 -20 7 -8 7 -18 2 -27 -8 -12 -10 -11 -11 5 0 16 -3
14 -14 -10 l-14 -30 -1 29 c0 16 10 49 22 73 22 45 114 140 125 129 3 -3 -5
-15 -19 -25z m1849 -5 c-4 -9 2 -12 19 -10 20 2 24 -2 24 -27 0 -16 4 -29 9
-29 12 0 19 -22 25 -75 5 -36 4 -38 -9 -21 -8 10 -12 22 -10 26 2 4 -16 6 -40
4 -25 -2 -45 0 -45 4 0 5 -6 9 -12 9 -7 0 -35 3 -63 7 -30 4 -42 3 -30 -2 17
-8 16 -9 -10 -16 -16 -4 -37 -16 -46 -27 -10 -11 -19 -19 -21 -17 -4 4 -30
-17 -72 -60 -28 -28 -34 -31 -40 -17 -3 9 -6 24 -6 33 0 9 -6 29 -14 44 -12
23 -12 29 0 39 8 6 14 29 14 50 0 22 2 39 4 39 2 0 17 -7 32 -15 69 -35 208
-9 264 49 26 29 35 33 27 12z m43 -156 c0 -5 -4 -10 -10 -10 -5 0 -10 5 -10
10 0 6 5 10 10 10 6 0 10 -4 10 -10z m-645 -50 c15 -46 15 -54 0 -107 -33
-114 -78 -195 -133 -242 -31 -26 -52 -51 -53 -64 -1 -14 -4 -9 -9 13 -10 39
12 99 55 156 14 18 25 37 25 42 0 4 13 35 29 68 16 33 37 88 46 122 10 34 19
62 21 62 1 0 10 -22 19 -50z m725 14 c0 -8 -19 -13 -24 -6 -3 5 1 9 9 9 8 0
15 -2 15 -3z m-2113 -56 c-3 -8 -6 -5 -6 6 -1 11 2 17 5 13 3 -3 4 -12 1 -19z
m2741 -61 c5 -23 -7 -71 -15 -64 -3 4 -9 25 -13 47 -6 35 -5 41 9 38 9 -2 17
-11 19 -21z m-1071 -79 c-3 -8 -6 -5 -6 6 -1 11 2 17 5 13 3 -3 4 -12 1 -19z
m1030 -30 c-3 -8 -6 -5 -6 6 -1 11 2 17 5 13 3 -3 4 -12 1 -19z m-1067 -13 c0
-14 -4 -25 -9 -25 -4 0 -6 11 -3 25 2 14 6 25 8 25 2 0 4 -11 4 -25z m-1515
-55 c-3 -5 3 -13 12 -19 10 -6 13 -11 6 -11 -6 0 -18 9 -26 20 -8 11 -17 17
-22 12 -5 -4 -5 -2 -1 5 4 7 13 10 21 7 8 -4 13 -10 10 -14z m2635 -64 c0 -3
-4 -8 -10 -11 -5 -3 -10 -1 -10 4 0 6 5 11 10 11 6 0 10 -2 10 -4z m0 -52 c0
-14 -21 -19 -33 -8 -8 8 16 33 26 27 4 -2 7 -11 7 -19z m16 -82 c-17 -16 -18
-16 -5 5 7 12 15 20 18 17 3 -2 -3 -12 -13 -22z m-1744 -194 c-17 -8 -26 -8
-34 0 -9 9 -4 12 23 11 32 0 33 -1 11 -11z m165 -173 c0 -8 -4 -12 -9 -9 -5 3
-6 10 -3 15 9 13 12 11 12 -6z m57 -28 c11 -8 17 -19 15 -25 -2 -6 -16 0 -32
14 -29 25 -15 34 17 11z m-22 -37 c12 -11 32 -26 42 -34 15 -10 16 -15 6 -21
-9 -6 -11 -4 -6 4 5 8 3 11 -5 10 -18 -4 -73 32 -76 49 -4 18 12 15 39 -8z
m133 -10 c-3 -5 -14 -10 -23 -10 -15 0 -15 2 -2 10 20 13 33 13 25 0z"/>
<path d="M2545 2590 c-3 -5 -1 -10 4 -10 6 0 11 5 11 10 0 6 -2 10 -4 10 -3 0
-8 -4 -11 -10z"/>
<path d="M2480 2365 c0 -11 -5 -15 -15 -11 -20 7 -42 -28 -50 -79 -8 -46 16
-163 41 -200 22 -33 59 -33 80 0 35 53 16 202 -33 257 -8 9 -12 21 -9 27 4 5
2 12 -4 16 -5 3 -10 -1 -10 -10z m10 -80 c11 -13 10 -14 -4 -9 -9 3 -16 10
-16 15 0 13 6 11 20 -6z m9 -139 c2 -45 -6 -27 -12 29 -4 34 -3 42 3 25 4 -14
8 -38 9 -54z"/>
<path d="M1916 2241 c-3 -4 -8 -33 -12 -63 -8 -67 7 -117 48 -164 26 -29 37
-34 74 -34 l44 0 0 40 c0 48 -34 152 -64 197 -16 26 -28 33 -53 33 -17 0 -34
-4 -37 -9z m73 -131 c0 -8 -7 -1 -14 15 -8 17 -14 37 -14 45 0 8 7 2 14 -15 8
-16 14 -37 14 -45z"/>
<path d="M2356 1894 c-3 -9 -6 -24 -6 -34 0 -29 -27 -45 -55 -32 -14 7 -25 18
-25 27 0 8 -4 15 -10 15 -16 0 -12 -47 6 -64 17 -17 61 -21 83 -7 20 13 38 61
33 88 -5 27 -17 30 -26 7z"/>
<path d="M1901 974 c0 -11 3 -14 6 -6 3 7 2 16 -1 19 -3 4 -6 -2 -5 -13z"/>
</g>
</svg>
